# xmcd
#
# Track frame offsets:
#	150
#	17170
#	32396
#	45146
#	58502
#	73462
#	89089
#	105343
#	120826
#	137659
#	152358
#	165825
#	181856
#	197374
#	213241
#	230882
#	244834
#	259591
#	273117
#	288362
#
# Disc length: 4070 seconds
#
# Revision: 1
# Processed by: cddbd v1.5.2PL0 Copyright (c) Steve Scherf et al.
# Submitted via: audiograbber 1.83.01
#
DISCID=fe0fe414
DTITLE=Various Artist - Club Grooves Volume.01
DYEAR=2007
DGENRE=Hands Up
TTITLE0=Rocco - Fuckin' Beautiful (Dancecore Radio Mix)
TTITLE1=Lazard - Your Heart Keeps Burning (Rob Mayth Radio Mix)
TTITLE2=The Real Booty Babes - 4 Ever
TTITLE3=Paffendorf vs The Real Booty Babes - Where Are You 2007
TTITLE4=Picco - Back To Hawaii (Hands Up Radio Mix)
TTITLE5=The Hitmen - Like I Love You (Vocal Club Cut)
TTITLE6=Floorfilla vs Rob Mayth - iPower!
TTITLE7=Liz Kay - When Love Becomes A Lie (Cascada Radio Mix)
TTITLE8=Klubbhoppers - Rain Again! (Klubbhoppers 2K7 Radio Mix)
TTITLE9=Bass-T - Check This!
TTITLE10=Bounce Brothers - Bes Tebja (Special D Radio Mix)
TTITLE11=M.Y.C. - Freakshow (Tune Up Radio Mix)
TTITLE12=DJ Digress - Extreme Elektroshock
TTITLE13=Clubbticket - Sunshine
TTITLE14=Mental Madness Allstars - Anthem (Allstars Radio Mix)
TTITLE15=Kim Sozzi - Break Up (Cascada Radio Mix)
TTITLE16=Cerla vs DJ Manian - Jump (Dan Winter Radio Mix)
TTITLE17=The Fabulous Glitterboys - Gang Bang Girl
TTITLE18=DJ Yanny - Rhythm Is A Bass
TTITLE19=Steve Twain presents Escape One - Numero Uno
EXTD=
EXTT0=
EXTT1=
EXTT2=
EXTT3=
EXTT4=
EXTT5=
EXTT6=
EXTT7=
EXTT8=
EXTT9=
EXTT10=
EXTT11=
EXTT12=
EXTT13=
EXTT14=
EXTT15=
EXTT16=
EXTT17=
EXTT18=
EXTT19=
PLAYORDER=
